:SAMPLES-PER-SECOND 30
:FULLY-SPECIFIED
:DEGREES
240
root  -21.4089 23.9556 -21.4646 11.1062 -62.1475 2.70739
RightUpLeg  -39.5515 -26.0874 -17.6753
RightLeg  82.629 1.46022 6.94499
RightFoot  -34.4118 -0.676159 -1.80577
RightToes  -62.5223 -0.418489 -0.402251
Spine  20.1177 4.11654 -0.983422
Spine1  33.3418 18.0361 -11.4961
HEad  3.92045 32.9089 -29.4416
LeftShoulder1  0 -2.42657e-020 -4.95415e-022
LeftArm  -28.8682 -13.4576 -84.5122
LeftForeArm  22.6375 -26.4979 -5.03642
LeftHand  0.403379 -5.7181 -8.44391
RightShoulder  0 2.42657e-020 1.07489e-018
RightArm  -56.2193 31.6738 45.1311
RightForeArm  28.7069 35.0475 7.10415
RightHand  3.36951 24.7809 15.6252
LeftUpLeg  -83.1311 14.0627 -3.82004
LeftLeg  61.2331 -5.47153 -8.53981
LeftFoot  6.41401 0.0588932 -1.05106
LeftToes  -17.3014 2.01279e-006 2.21547e-008
241
root  -23.4685 23.2789 -21.7138 14.5392 -60.2564 -2.6923
RightUpLeg  -34.1167 -28.613 -14.7555
RightLeg  84.724 0.902375 5.07013
RightFoot  -37.8639 -0.411908 -0.823326
RightToes  -61.2795 -0.406659 -0.401379
Spine  20.1489 5.33141 -1.49563
Spine1  33.3898 20.6263 -11.4917
HEad  2.11747 33.1965 -30.0738
LeftShoulder1  0 -2.42657e-020 -4.95415e-022
LeftArm  -29.1436 -14.7238 -86.3855
LeftForeArm  20.9594 -24.4059 -4.58227
LeftHand  0.490783 -5.27824 -11.0014
RightShoulder  0 2.42657e-020 1.07489e-018
RightArm  -41.1993 29.9767 53.096
RightForeArm  29.6273 33.76 6.76652
RightHand  2.54468 27.3555 10.8016
LeftUpLeg  -86.7432 17.3258 -8.44147
LeftLeg  61.1021 -1.64917 -2.58961
LeftFoot  3.168 -0.0101187 0.365906
LeftToes  -18.4329 2.01279e-006 2.21547e-008
242
root  -25.5663 22.6512 -21.9658 20.2738 -58.1615 -9.74027
RightUpLeg  -29.4627 -30.8236 -10.2829
RightLeg  86.2188 0.496894 2.99588
RightFoot  -39.2346 0.041263 0.493327
RightToes  -61.7092 -0.410742 -0.402379
Spine  19.7113 6.58824 -2.32545
Spine1  32.4985 23.0597 -12.1124
HEad  -2.25796 34.2054 -32.8046
LeftShoulder1  0 -2.42657e-020 -4.95415e-022
LeftArm  -32.8424 -16.0242 -87.6687
LeftForeArm  17.6294 -22.2404 -4.12792
LeftHand  0.439433 -3.74757 -13.7663
RightShoulder  0 2.42657e-020 1.07489e-018
RightArm  -25.2362 30.2455 63.4022
RightForeArm  36.07 29.716 5.76616
RightHand  1.29318 28.6288 5.43609
LeftUpLeg  -91.697 19.9079 -12.7936
LeftLeg  64.8777 3.99898 7.21581
LeftFoot  -0.2361 0.00231748 1.12473
LeftToes  -7.00744 2.01279e-006 2.21547e-008
243
root  -27.7653 22.1861 -22.0435 24.4745 -54.5022 -14.026
RightUpLeg  -24.2363 -32.0727 -7.25386
RightLeg  86.2205 0.656767 4.21225
RightFoot  -38.2663 -0.20479 -0.212745
RightToes  -68.3702 -0.474841 -0.413943
Spine  18.6407 7.53853 -4.01986
Spine1  29.905 24.8796 -14.8986
HEad  -6.22164 35.5175 -34.4557
LeftShoulder1  0 -2.42657e-020 -4.95415e-022
LeftArm  -39.6209 -16.4198 -86.7679
LeftForeArm  16.189 -20.0425 -3.68151
LeftHand  0.280053 -2.47121 -13.3363
RightShoulder  0 2.42657e-020 1.07489e-018
RightArm  -10.3095 31.4661 77.5275
RightForeArm  47.1281 21.6747 3.99282
RightHand  -0.866684 27.8309 -3.12771
LeftUpLeg  -95.1914 19.1567 -15.8079
LeftLeg  69.8986 3.8493 8.64577
LeftFoot  -1.63696 0.0229665 1.60748
LeftToes  11.7535 2.01279e-006 2.21547e-008
244
root  -30.0274 21.9628 -21.864 26.9799 -48.5749 -15.3311
RightUpLeg  -18.9127 -34.5467 -4.64128
RightLeg  84.4349 1.15553 6.45302
RightFoot  -34.1692 -0.513917 -1.29448
RightToes  -79.5506 -0.584025 -0.41643
Spine  17.1159 8.30476 -6.21291
Spine1  26.4198 25.8934 -18.2905
HEad  -8.83149 34.5009 -32.156
LeftShoulder1  0 -2.42657e-020 -4.95415e-022
LeftArm  -47.8103 -17.0949 -83.1721
LeftForeArm  20.8138 -16.0727 -2.90786
LeftHand  0.221294 -2.22719 -11.7536
RightShoulder  0 2.42657e-020 1.07489e-018
RightArm  -7.24617 31.3599 92.1973
RightForeArm  65.755 13.4771 2.36143
RightHand  -1.3485 27.8418 -5.06777
LeftUpLeg  -96.4664 13.5897 -10.7371
LeftLeg  73.849 0.0124182 0.015201
LeftFoot  0.427108 -0.00761544 2.04298
LeftToes  18.7678 2.01279e-006 2.21547e-008
245
root  -32.3106 22.0855 -21.4172 27.5832 -39.1845 -12.4474
RightUpLeg  -15.1278 -39.0548 -1.26642
RightLeg  81.0656 1.69209 7.1036
RightFoot  -26.6021 -0.328322 -1.0112
RightToes  -92.0143 -0.703679 -0.394215
Spine  15.7954 8.30438 -8.18743
Spine1  23.6979 25.2007 -20.7284
HEad  -8.13545 31.3525 -25.2764
LeftShoulder1  0 -2.42657e-020 -4.95415e-022
LeftArm  -53.4439 -16.8415 -78.1117
LeftForeArm  23.2239 -13.599 -2.44182
LeftHand  0.283527 -2.91534 -11.5043
RightShoulder  0 2.42657e-020 1.07489e-018
RightArm  -8.87466 27.7676 99.9856
RightForeArm  72.9437 12.5886 2.17813
RightHand  -0.348963 26.7819 -1.09598
LeftUpLeg  -98.1528 3.25277 -2.94244
LeftLeg  78.0771 0.898467 3.18872
LeftFoot  0.66426 -0.0111568 1.92445
LeftToes  16.2806 2.01279e-006 2.21547e-008
246
root  -34.6586 22.5025 -20.6554 28.2069 -30.4626 -9.30314
RightUpLeg  -15.2792 -37.9234 4.38675
RightLeg  78.5266 2.19775 7.73707
RightFoot  -13.1341 -0.0410373 0.0210795
RightToes  -101.283 -0.788021 -0.361188
Spine  15.589 8.44153 -10.4512
Spine1  23.1619 25.0575 -23.433
HEad  -8.09026 26.8887 -18.5269
LeftShoulder1  0 -2.42657e-020 -4.95415e-022
LeftArm  -56.0203 -17.8935 -71.2493
LeftForeArm  22.1326 -14.0047 -2.51759
LeftHand  0.619751 -4.34291 -16.6317
RightShoulder  0 2.42657e-020 1.07489e-018
RightArm  -14.3005 25.753 103.33
RightForeArm  65.6328 13.1889 2.30824
RightHand  -0.811641 28.6827 -2.80443
LeftUpLeg  -98.7716 -3.14671 -0.131214
LeftLeg  80.072 0.400361 1.62467
LeftFoot  -2.492 0.0367389 1.68899
LeftToes  18.9468 2.01279e-006 2.21547e-008
247
root  -37.0218 23.1391 -19.7764 29.3675 -20.5176 -7.6547
RightUpLeg  -18.6063 -31.0841 12.7038
RightLeg  77.726 3.56944 11.9963
RightFoot  2.49206 -0.0301912 1.76504
RightToes  -88.8619 -0.673917 -0.402287
Spine  16.079 8.01204 -11.5826
Spine1  24.3104 23.9739 -24.3333
HEad  -8.03501 23.6075 -13.8683
LeftShoulder1  0 -2.42657e-020 -4.95415e-022
LeftArm  -54.6529 -18.1612 -64.2504
LeftForeArm  18.7185 -17.0298 -3.09115
LeftHand  1.10661 -5.39449 -23.5687
RightShoulder  0 2.42657e-020 1.07489e-018
RightArm  -18.5143 25.2618 104.006
RightForeArm  66.7286 14.4172 2.53448
RightHand  -1.06851 29.0886 -3.74758
LeftUpLeg  -98.6309 -7.58759 2.63421
LeftLeg  81.1752 -0.102026 -0.491074
LeftFoot  -5.30915 0.0759058 1.63704
LeftToes  13.8322 2.01279e-006 2.21547e-008
248
root  -39.2549 23.8868 -18.6816 29.8826 -9.21562 -5.62868
RightUpLeg  -23.3842 -23.5544 18.6177
RightLeg  78.6451 4.18015 14.8788
RightFoot  9.23591 -0.232755 3.25827
RightToes  -67.664 -0.467987 -0.413071
Spine  17.0418 7.01031 -11.3706
Spine1  26.6341 21.6487 -23.7749
HEad  -8.59285 21.399 -11.3013
LeftShoulder1  0 -2.42657e-020 -4.95415e-022
LeftArm  -59.0139 -16.884 -58.9143
LeftForeArm  1.28284 -21.6755 -4
LeftHand  0.80209 -3.40272 -26.9433
RightShoulder  0 2.42657e-020 1.07489e-018
RightArm  -23.2225 25.1815 103.05
RightForeArm  69.4733 16.0081 2.82793
RightHand  -1.23456 27.3977 -4.69273
LeftUpLeg  -97.0583 -12.0469 4.60871
LeftLeg  80.6389 -0.864214 -3.75492
LeftFoot  -6.91279 0.11114 1.83993
LeftToes  8.09853 2.01279e-006 2.21547e-008
249
root  -41.3171 24.6376 -17.4479 30.4374 1.23861 -3.70438
RightUpLeg  -28.7436 -17.0073 19.8073
RightLeg  80.4872 1.84327 7.42421
RightFoot  -0.351763 -0.000423513 0.240062
RightToes  -61.9109 -0.412661 -0.402839
Spine  17.9354 6.21478 -10.5956
Spine1  29.0398 19.5647 -22.1043
HEad  -8.70176 18.509 -8.12575
LeftShoulder1  0 -2.42657e-020 -4.95415e-022
LeftArm  -61.0768 -15.2439 -55.1968
LeftForeArm  0.812268 -27.312 -5.20361
LeftHand  0.938954 -3.549 -30.0561
RightShoulder  0 2.42657e-020 1.07489e-018
RightArm  -24.7478 23.5303 99.5553
RightForeArm  46.4149 19.7046 3.59647
RightHand  -1.03693 24.7235 -4.35981
LeftUpLeg  -94.849 -15.0195 5.94433
LeftLeg  79.4403 -1.72455 -6.78907
LeftFoot  -8.00732 0.146988 2.09985
LeftToes  0.043905 2.01279e-006 2.21547e-008
250
root  -43.2051 25.4452 -16.2099 31.6339 8.73217 -2.52986
RightUpLeg  -34.9345 -11.1458 16.063
RightLeg  83.1635 -0.195036 -1.57652
RightFoot  -9.09013 0.00109632 0.39137
RightToes  -50.6643 -0.308773 -0.367112
Spine  18.5048 5.79242 -9.89828
Spine1  31.1339 17.8756 -19.4769
HEad  -9.69315 15.4457 -6.09566
LeftShoulder1  0 -2.42657e-020 -4.95415e-022
LeftArm  -59.5313 -14.7424 -53.2479
LeftForeArm  -0.651921 -33.0116 -6.55546
LeftHand  1.11245 -4.25255 -29.7242
RightShoulder  0 2.42657e-020 1.07489e-018
RightArm  -27.7142 21.1081 94.2473
RightForeArm  42.4893 23.1014 4.29463
RightHand  -1.19179 24.2489 -5.17483
LeftUpLeg  -92.6583 -14.8784 6.86689
LeftLeg  77.5907 -3.4913 -11.9438
LeftFoot  -7.9243 0.180381 2.60384
LeftToes  -7.44394 2.01279e-006 2.21547e-008
251
root  -44.9597 26.1108 -14.907 32.7826 14.921 -1.47035
RightUpLeg  -40.3337 -8.94647 9.07591
RightLeg  84.4172 -1.41917 -9.22561
RightFoot  -18.1807 0.454324 3.21661
RightToes  -36.8638 -0.193927 -0.296729
Spine  19.126 5.57787 -9.56794
Spine1  33.5456 15.8754 -15.4292
HEad  -9.61186 11.4603 -3.34138
LeftShoulder1  0 -2.42657e-020 -4.95415e-022
LeftArm  -57.9081 -18.2979 -52.861
LeftForeArm  0.448741 -36.1776 -7.38863
LeftHand  0.991933 -4.3762 -25.9407
RightShoulder  0 2.42657e-020 1.07489e-018
RightArm  -32.2444 19.2718 88.6863
RightForeArm  37.0055 26.1564 4.95575
RightHand  -1.37533 22.1746 -6.6418
LeftUpLeg  -90.7533 -14.1905 7.95329
LeftLeg  76.1046 -5.48917 -16.8234
LeftFoot  -8.01589 0.226417 3.23061
LeftToes  -13.5975 2.01279e-006 2.21547e-008
252
root  -46.8374 26.6033 -13.5696 33.6181 21.9511 -1.77797
RightUpLeg  -44.4031 -9.26436 3.06107
RightLeg  82.4341 -2.44708 -12.5681
RightFoot  -23.8287 1.16556 5.89778
RightToes  -26.4572 -0.120302 -0.226605
Spine  19.9079 4.8157 -8.7037
Spine1  35.2189 13.0197 -11.6842
HEad  -10.204 9.4248 -1.5642
LeftShoulder1  0 -2.42657e-020 -4.95415e-022
LeftArm  -59.0417 -23.5044 -52.2789
LeftForeArm  3.77958 -39.6986 -8.40451
LeftHand  0.840729 -4.16413 -23.2272
RightShoulder  0 2.42657e-020 1.07489e-018
RightArm  -38.1478 20.4582 85.5779
RightForeArm  35.2976 26.6257 5.06103
RightHand  -1.94432 20.3107 -10.4566
LeftUpLeg  -90.1615 -13.3708 11.1902
LeftLeg  75.4303 -7.47347 -21.544
LeftFoot  -8.01003 0.26664 3.80693
LeftToes  -20.8257 2.01279e-006 2.21547e-008
253
root  -48.7593 26.8621 -12.163 33.6439 28.943 -3.38282
RightUpLeg  -47.0369 -11.0259 -1.90968
RightLeg  78.1469 -3.60307 -13.0297
RightFoot  -26.0547 1.5746 7.1757
RightToes  -24.69 -0.109117 -0.21342
Spine  20.8217 3.84709 -7.70265
Spine1  36.1261 10.3868 -9.32979
HEad  -11.1417 9.86362 -0.420776
LeftShoulder1  0 -2.42657e-020 -4.95415e-022
LeftArm  -63.655 -30.4236 -50.1056
LeftForeArm  8.41852 -42.0337 -9.14192
LeftHand  0.900397 -7.00522 -15.0153
RightShoulder  0 2.42657e-020 1.07489e-018
RightArm  -40.407 24.0378 84.3681
RightForeArm  35.4361 26.4873 5.03024
RightHand  -2.49726 19.4742 -14.1121
LeftUpLeg  -90.3091 -11.7177 15.7108
LeftLeg  75.1318 -7.81317 -22.0726
LeftFoot  -9.04643 0.31735 4.0099
LeftToes  -25.3039 2.01279e-006 2.21547e-008
